<?xml version="1.0" standalone="no"?>
<!DOCTYPE svg PUBLIC "-//W3C//DTD SVG 20010904//EN"
 "http://www.w3.org/TR/2001/REC-SVG-20010904/DTD/svg10.dtd">
<svg version="1.0" xmlns="http://www.w3.org/2000/svg"
 width="1280.000000pt" height="1280.000000pt" viewBox="0 0 1280.000000 1280.000000"
 preserveAspectRatio="xMidYMid meet">
<metadata>
Created by potrace 1.14, written by Peter Selinger 2001-2017
</metadata>
<g transform="translate(0.000000,1280.000000) scale(0.100000,-0.100000)"
fill="#000000" stroke="none">
<path d="M6139 12776 c-2 -2 -62 -6 -134 -10 -137 -7 -187 -11 -269 -21 -64
-8 -109 -13 -168 -20 -57 -6 -115 -14 -148 -21 -45 -8 -64 -11 -140 -24 -140
-23 -417 -86 -630 -144 -142 -38 -557 -183 -665 -231 -16 -8 -59 -26 -95 -40
-105 -44 -476 -221 -490 -235 -3 -3 -34 -20 -70 -39 -93 -50 -271 -155 -370
-220 -47 -31 -93 -60 -102 -66 -29 -17 -239 -165 -248 -175 -3 -3 -48 -37
-100 -76 -52 -40 -105 -81 -117 -93 -12 -11 -25 -21 -28 -21 -3 0 -13 -8 -23
-17 -10 -10 -38 -34 -63 -55 -158 -130 -411 -373 -569 -547 -41 -46 -87 -95
-102 -111 -16 -16 -28 -31 -28 -34 0 -3 -10 -15 -22 -28 -28 -28 -73 -83 -167
-203 -39 -49 -74 -94 -79 -100 -4 -5 -19 -25 -32 -44 -14 -19 -45 -63 -70 -97
-25 -34 -51 -70 -57 -80 -7 -11 -40 -59 -73 -108 -33 -48 -60 -90 -60 -92 0
-1 -22 -38 -50 -81 -27 -43 -50 -83 -50 -90 0 -6 -4 -13 -8 -15 -18 -7 -210
-370 -306 -578 -110 -239 -244 -599 -315 -843 -31 -104 -86 -312 -95 -357 -50
-240 -75 -364 -80 -405 -4 -27 -13 -90 -21 -140 -16 -99 -23 -159 -31 -250 -3
-33 -7 -70 -9 -83 -19 -116 -27 -774 -12 -982 13 -168 26 -306 32 -340 2 -8 6
-44 10 -80 4 -36 8 -67 10 -70 2 -3 6 -30 10 -60 29 -235 134 -686 227 -970
38 -118 144 -411 168 -465 10 -22 37 -85 60 -140 77 -182 277 -574 360 -705 5
-8 37 -60 71 -115 134 -217 400 -589 461 -646 10 -9 18 -19 18 -23 0 -4 10
-17 22 -30 13 -13 32 -34 42 -47 153 -189 412 -453 662 -676 38 -34 83 -72 99
-84 17 -13 32 -26 35 -29 3 -3 39 -33 80 -65 41 -33 77 -62 80 -65 9 -9 204
-154 221 -165 9 -5 88 -58 175 -116 171 -113 194 -128 247 -158 19 -10 45 -25
58 -33 13 -7 26 -15 29 -18 24 -24 612 -320 636 -320 4 0 25 -9 48 -19 64 -30
112 -51 153 -66 21 -7 63 -23 93 -35 231 -89 623 -206 860 -256 41 -9 84 -18
95 -21 11 -2 31 -6 45 -9 14 -2 34 -6 46 -9 12 -3 39 -7 60 -10 21 -4 46 -8
55 -11 9 -2 34 -7 55 -9 22 -3 50 -7 64 -10 51 -10 281 -39 405 -50 282 -27
934 -27 1140 0 17 2 55 6 85 10 51 5 79 8 170 19 42 5 165 24 200 30 14 3 66
12 115 20 107 19 96 17 265 55 114 26 204 49 305 77 11 3 25 6 30 8 6 1 30 8
55 15 114 31 503 167 575 201 11 5 58 25 105 44 155 63 491 226 608 295 29 17
55 31 58 31 2 0 41 22 85 50 44 27 82 50 85 50 4 0 257 162 264 170 3 3 34 25
70 50 36 24 67 48 68 52 2 4 8 8 13 8 12 0 187 133 319 243 182 150 261 222
428 387 117 116 171 173 307 325 106 118 295 351 295 364 0 5 4 11 8 13 20 7
312 436 368 538 10 19 21 37 24 40 3 3 10 15 17 26 6 12 41 73 76 137 113 201
256 503 347 732 77 192 216 614 234 707 2 13 14 57 25 98 12 41 24 90 27 109
3 19 10 45 15 58 5 13 7 23 4 23 -2 0 1 15 6 33 8 29 38 184 44 234 2 11 5 29
8 40 3 10 9 43 12 73 3 30 8 62 10 70 2 8 7 38 10 65 3 28 7 66 10 85 8 59 24
229 32 340 16 207 9 789 -12 980 -2 19 -6 62 -10 95 -7 74 -14 129 -21 178 -3
20 -7 47 -8 60 -6 46 -19 133 -23 152 -2 11 -8 43 -13 70 -18 105 -22 123 -45
230 -13 61 -40 171 -60 245 -20 74 -40 151 -44 170 -21 92 -192 577 -245 695
-8 17 -21 46 -29 65 -102 230 -184 396 -260 530 -14 25 -33 62 -43 83 -9 20
-20 37 -24 37 -4 0 -10 8 -14 18 -17 52 -300 487 -389 597 -4 6 -33 44 -64 85
-32 41 -60 77 -63 80 -3 3 -23 28 -45 55 -22 28 -43 52 -47 53 -5 2 -8 8 -8
12 0 5 -10 20 -22 33 -61 65 -118 130 -118 133 0 5 -125 136 -246 258 -128
129 -266 257 -368 341 -27 22 -55 46 -62 53 -7 7 -35 29 -61 49 -26 20 -50 39
-53 43 -3 3 -32 26 -65 51 -33 24 -62 46 -65 49 -3 4 -45 35 -95 70 -49 36
-92 68 -95 71 -3 3 -19 13 -37 22 -17 9 -37 22 -45 29 -21 20 -127 88 -137 88
-5 0 -11 4 -13 8 -3 9 -234 148 -328 198 -30 16 -57 31 -60 34 -12 13 -368
184 -490 235 -74 31 -149 63 -167 71 -30 14 -194 74 -258 96 -16 5 -39 14 -50
18 -42 19 -362 113 -455 135 -8 2 -40 11 -72 19 -31 8 -69 18 -85 21 -15 3
-37 8 -48 10 -47 11 -65 15 -161 34 -56 11 -132 25 -170 31 -38 6 -80 13 -94
15 -25 5 -149 21 -225 31 -22 2 -56 6 -75 9 -19 3 -71 8 -115 11 -44 4 -98 8
-120 10 -60 6 -691 15 -696 10z"/>
</g>
</svg>
